<?xml version="1.0" encoding="utf-8"?>
<!-- Generator: Adobe Illustrator 28.0.0, SVG Export Plug-In . SVG Version: 6.00 Build 0)  -->
<svg version="1.1" id="Laag_1" xmlns="http://www.w3.org/2000/svg" xmlns:xlink="http://www.w3.org/1999/xlink" x="0px" y="0px"
	 viewBox="0 0 256 256" style="enable-background:new 0 0 256 256;" xml:space="preserve">
<style type="text/css">
	.st0{fill:#FFFFFF;}
	.st1{fill:#0066CC;}
	.st2{font-family:'ArialMT';}
	.st3{font-size:39.427px;}
	.st4{font-family:'AmericanTypewriter-CondensedBold';}
</style>
<g>
	<path class="st0" d="M100.6,236.6c-50.9-4.5-79.5-74.8-79.5-121.6S47.6,23,94.4,9s148.1,35.9,145,101.3
		C236.2,175.8,206.6,245.9,100.6,236.6"/>
	<path class="st1" d="M92,172.3l-48.3-36l29-39.6l10.2,6.2l-14.8,18.7l139.5-10.8l1.1,15.3l-144.5,5.7l36.3,27.8L92,172.3z"/>
	<text transform="matrix(0.9986 -5.233000e-02 5.233000e-02 0.9986 86.4704 107.3284)" class="st1 st2 st3">choco</text>
	<text transform="matrix(1 -4.360000e-03 4.360000e-03 1 109.0977 169.3064)" class="st1 st2 st3">shop</text>
</g>
<g>
	<path class="st0" d="M100.6,236.6c-50.9-4.5-79.5-74.8-79.5-121.6S47.6,23,94.4,9s148.1,35.9,145,101.3
		C236.2,175.8,206.6,245.9,100.6,236.6"/>
	<path class="st1" d="M92,172.3l-48.3-36l29-39.6l10.2,6.2l-14.8,18.7l139.5-10.8l1.1,15.3l-144.5,5.7l36.3,27.8L92,172.3z"/>
	<text transform="matrix(0.9986 -5.233000e-02 5.233000e-02 0.9986 86.4704 107.3284)" class="st1 st2 st3">choco</text>
	<text transform="matrix(1 -4.360000e-03 4.360000e-03 1 109.0977 169.3064)" class="st1 st2 st3">shop</text>
</g>
<g>
	<path class="st0" d="M10.7,65.8c17.2-53,99-66.3,148.7-54.9s91.4,50.6,94.9,103.8s-74.2,148.8-143.1,129.5
		C42.3,224.8-25.1,176.2,10.7,65.8"/>
	<path class="st1" d="M92,172.3l-48.3-36l29-39.6l10.2,6.2l-14.8,18.7l139.5-10.8l1.1,15.3l-144.5,5.7l36.3,27.8L92,172.3z"/>
	<text transform="matrix(0.9986 -5.233000e-02 5.233000e-02 0.9986 86.4704 107.3284)" class="st1 st2 st3">choco</text>
	<text transform="matrix(1 -4.360000e-03 4.360000e-03 1 109.0977 169.3064)" class="st1 st2 st3">shop</text>
</g>
<g>
	<path class="st0" d="M10.7,65.8c17.2-53,99-66.3,148.7-54.9s91.4,50.6,94.9,103.8s-74.2,148.8-143.1,129.5
		C42.3,224.8-25.1,176.2,10.7,65.8"/>
	<path class="st1" d="M62.4,172.3l-48.2-36l28.9-39.6l10.2,6.2l-14.7,18.7l190.8-9.3l0.1,8.4L34.6,131.8l36.3,27.8L62.4,172.3z"/>
	<text transform="matrix(0.9986 -5.233000e-02 5.233000e-02 0.9986 86.4704 117.329)" class="st1 st4 st3">CHOCO</text>
	<text transform="matrix(1 -4.360000e-03 4.360000e-03 1 109.0977 159.3058)" class="st1 st4 st3">SHOP</text>
</g>
</svg>
