<?xml version="1.0" encoding="utf-8"?>
<!-- Generator: Adobe Illustrator 28.0.0, SVG Export Plug-In . SVG Version: 6.00 Build 0)  -->
<svg version="1.1" id="Laag_1" xmlns="http://www.w3.org/2000/svg" xmlns:xlink="http://www.w3.org/1999/xlink" x="0px" y="0px"
	 viewBox="0 0 256 256" style="enable-background:new 0 0 256 256;" xml:space="preserve">
<style type="text/css">
	.st0{fill:#FFFFFF;}
	.st1{fill:#D02E27;}
</style>
<path class="st0" d="M119.9,14.5c-13-0.1-41.6-0.4-69,18.4c-9.5,6.5-30.4,23.3-39.6,52.6c-9.4,29.8-1.3,55.1,4.1,71.7
	C24,184.1,38,201.1,42,205.8c8.8,10.3,26.5,30.9,56,38.9c43.7,11.9,81.3-12.5,91.5-19.1c31-20.1,44.2-47.4,47.1-54
	c4.9-10.7,20.3-44.6,6.8-83.3c-1.6-4.7-11.6-32.2-38.9-50.6c-16.2-10.9-32.5-14.5-49.9-18.4C145.2,17.1,134.2,14.6,119.9,14.5z"/>
<polygon class="st1" points="118.8,8.1 112.6,136 59.3,79.6 36.1,113.2 127.5,198.9 219.9,117.6 192.5,79.6 147.4,134 155.6,16.5 
	"/>
</svg>
