<?xml version="1.0" encoding="utf-8"?>
<!-- Generator: Adobe Illustrator 28.0.0, SVG Export Plug-In . SVG Version: 6.00 Build 0)  -->
<svg version="1.1" id="Laag_1" xmlns="http://www.w3.org/2000/svg" xmlns:xlink="http://www.w3.org/1999/xlink" x="0px" y="0px"
	 viewBox="0 0 256 256" style="enable-background:new 0 0 256 256;" xml:space="preserve">
<style type="text/css">
	.st0{fill:#0066CC;}
	.st1{fill:#FFFFFF;}
	.st2{font-family:'ArialMT';}
	.st3{font-size:39.427px;}
	.st4{font-family:'AmericanTypewriter-CondensedBold';}
</style>
<g>
	<path class="st0" d="M158.1,225.5c46.2-3.9,72.3-64.7,72.3-105.1s-24.1-79.5-66.6-91.6C121.2,16.6,29.1,59.8,32,116.4
		C34.8,172.9,61.7,233.6,158.1,225.5"/>
	<path class="st1" d="M166,78.3l52.8,45.1L193.3,162L181,151.4l15.1-23.4l-140.3,5.9l-0.5-14.2l135.7-5.3l-29.9-27.6L166,78.3z"/>
	<text transform="matrix(0.9994 3.490000e-02 -3.490000e-02 0.9994 77.9382 101.8145)" class="st1 st2 st3">mee</text>
	<text transform="matrix(1 -4.360000e-03 4.360000e-03 1 68.6628 170.2225)" class="st1 st2 st3">doen</text>
</g>
<g>
	<path class="st0" d="M158.1,225.5c46.2-3.9,72.3-64.7,72.3-105.1s-24.1-79.5-66.6-91.6C121.2,16.6,29.1,59.8,32,116.4
		C34.8,172.9,61.7,233.6,158.1,225.5"/>
	<path class="st1" d="M166,78.3l52.8,45.1L193.3,162L181,151.4l15.1-23.4l-140.3,5.9l-0.5-14.2l135.7-5.3l-29.9-27.6L166,78.3z"/>
	<text transform="matrix(0.9994 3.490000e-02 -3.490000e-02 0.9994 77.9382 101.8145)" class="st1 st2 st3">mee</text>
	<text transform="matrix(1 -4.360000e-03 4.360000e-03 1 68.6628 170.2225)" class="st1 st2 st3">doen</text>
</g>
<g>
	<path class="st0" d="M98.8,7.6c-55.5,4.7-86.7,77.6-86.7,126.1S41,229.1,92,243.6c51,14.6,161.5-37.2,158.1-105.1
		C246.7,70.7,214.4-2.1,98.8,7.6"/>
	<path class="st1" d="M166,78.3l52.8,45.1L193.3,162L181,151.4l15.1-23.4l-140.3,5.9l-0.5-14.2l135.7-5.3l-29.9-27.6L166,78.3z"/>
	<text transform="matrix(0.9994 3.490000e-02 -3.490000e-02 0.9994 77.9382 101.8145)" class="st1 st2 st3">mee</text>
	<text transform="matrix(1 -4.360000e-03 4.360000e-03 1 68.6628 170.2225)" class="st1 st2 st3">doen</text>
</g>
<g>
	<path class="st0" d="M98.8,7.6c-55.5,4.7-86.7,77.6-86.7,126.1S41,229.1,92,243.6c51,14.6,161.5-37.2,158.1-105.1
		C246.7,70.7,214.4-2.1,98.8,7.6"/>
	<path class="st1" d="M183.1,78.3l52.7,45.1L210.3,162L198,151.4l14.3-27.1l-186.6,9.4V121l182.8-6.3l-30.3-27.9L183.1,78.3z"/>
	<text transform="matrix(0.9994 3.490000e-02 -3.490000e-02 0.9994 77.9382 111.8152)" class="st1 st4 st3">MEE</text>
	<text transform="matrix(1 -4.360000e-03 4.360000e-03 1 68.663 165.872)" class="st1 st4 st3">DOEN</text>
</g>
</svg>
